<!--?xml version="1.0" standalone="no"?-->
              <svg id="sw-js-blob-svg" viewBox="0 0 100 100" xmlns="http://www.w3.org/2000/svg" version="1.1">
                    <defs> 
                        <linearGradient id="sw-gradient" x1="0" x2="1" y1="1" y2="0">
                            <stop id="stop1" stop-color="rgba(255,255,255,0.103)" offset="0%"></stop>
                        </linearGradient>
                    </defs>
                <path fill="url(#sw-gradient)" d="M14.9,-23.4C20.4,-22.6,26.7,-20.8,29.5,-16.8C32.3,-12.7,31.5,-6.4,31.6,0.1C31.7,6.5,32.7,12.9,29.5,16.4C26.4,19.8,19.1,20.2,13.5,23.1C7.9,26,4,31.4,-1,33.1C-6,34.9,-12,33,-19,30.9C-26,28.8,-34.1,26.6,-35.6,21.4C-37,16.2,-31.9,8.1,-30.7,0.7C-29.5,-6.7,-32.3,-13.5,-30.3,-17.8C-28.3,-22.1,-21.6,-23.9,-15.7,-24.5C-9.9,-25.2,-5,-24.6,-0.1,-24.3C4.7,-24.1,9.4,-24.2,14.9,-23.4Z" width="100%" height="100%" transform="translate(50 50)" stroke-width="0" style="transition: all 0.3s ease 0s;"></path>
              </svg>